<svg width="21" height="20" viewBox="0 0 21 20" fill="none" xmlns="http://www.w3.org/2000/svg">
<g clip-path="url(#clip0_1_1222)">
<path d="M0.664062 1.2C0.664062 0.537258 1.19993 0 1.86095 0H5.45159C6.11263 0 6.64848 0.537258 6.64848 1.2V4.8C6.64848 5.46276 6.11263 6 5.45159 6H1.86095C1.19993 6 0.664062 5.46276 0.664062 4.8V1.2Z" fill="white"/>
<path d="M0.664062 8.2C0.664062 7.53724 1.19993 7 1.86095 7H5.45159C6.11263 7 6.64848 7.53724 6.64848 8.2V11.8C6.64848 12.4628 6.11263 13 5.45159 13H1.86095C1.19993 13 0.664062 12.4628 0.664062 11.8V8.2Z" fill="white"/>
<path d="M0.664062 15.2C0.664062 14.5372 1.19993 14 1.86095 14H5.45159C6.11263 14 6.64848 14.5372 6.64848 15.2V18.8C6.64848 19.4628 6.11263 20 5.45159 20H1.86095C1.19993 20 0.664062 19.4628 0.664062 18.8V15.2Z" fill="white"/>
<path d="M7.64453 1.2C7.64453 0.537258 8.18038 0 8.84141 0H12.4321C13.0931 0 13.6289 0.537258 13.6289 1.2V4.8C13.6289 5.46276 13.0931 6 12.4321 6H8.84141C8.18038 6 7.64453 5.46276 7.64453 4.8V1.2Z" fill="white"/>
<path d="M7.64453 8.2C7.64453 7.53724 8.18038 7 8.84141 7H12.4321C13.0931 7 13.6289 7.53724 13.6289 8.2V11.8C13.6289 12.4628 13.0931 13 12.4321 13H8.84141C8.18038 13 7.64453 12.4628 7.64453 11.8V8.2Z" fill="white"/>
<path d="M7.64453 15.2C7.64453 14.5372 8.18038 14 8.84141 14H12.4321C13.0931 14 13.6289 14.5372 13.6289 15.2V18.8C13.6289 19.4628 13.0931 20 12.4321 20H8.84141C8.18038 20 7.64453 19.4628 7.64453 18.8V15.2Z" fill="white"/>
<path d="M14.627 1.2C14.627 0.537258 15.1628 0 15.8238 0H19.4145C20.0755 0 20.6114 0.537258 20.6114 1.2V4.8C20.6114 5.46276 20.0755 6 19.4145 6H15.8238C15.1628 6 14.627 5.46276 14.627 4.8V1.2Z" fill="white"/>
<path d="M14.627 8.2C14.627 7.53724 15.1628 7 15.8238 7H19.4145C20.0755 7 20.6114 7.53724 20.6114 8.2V11.8C20.6114 12.4628 20.0755 13 19.4145 13H15.8238C15.1628 13 14.627 12.4628 14.627 11.8V8.2Z" fill="white"/>
<path d="M14.627 15.2C14.627 14.5372 15.1628 14 15.8238 14H19.4145C20.0755 14 20.6114 14.5372 20.6114 15.2V18.8C20.6114 19.4628 20.0755 20 19.4145 20H15.8238C15.1628 20 14.627 19.4628 14.627 18.8V15.2Z" fill="white"/>
</g>
<defs>
<clipPath id="clip0_1_1222">
<rect width="20.3244" height="20" fill="white" transform="translate(0.664062)"/>
</clipPath>
</defs>
</svg>
