<svg width="23" height="21" viewBox="0 0 23 21" fill="none" xmlns="http://www.w3.org/2000/svg">
<path d="M5.22701 4.2C5.22701 3.08609 5.66761 2.0178 6.45189 1.23015C7.23616 0.442499 8.29987 0 9.409 0H13.591C14.7001 0 15.7638 0.442499 16.5481 1.23015C17.3324 2.0178 17.773 3.08609 17.773 4.2V6.3H21.955C22.1067 6.30007 22.2567 6.33332 22.3944 6.39745C22.532 6.46157 22.6542 6.55503 22.7523 6.67133C22.8504 6.78763 22.9221 6.92398 22.9624 7.07092C23.0027 7.21785 23.0107 7.37185 22.9858 7.5222L21.3319 17.4909C21.1691 18.4712 20.6654 19.3618 19.9104 20.0043C19.1554 20.6468 18.198 20.9996 17.2084 21H5.79158C4.8018 20.9999 3.84415 20.6472 3.08894 20.0047C2.33372 19.3621 1.82991 18.4714 1.66709 17.4909L0.0141558 7.5222C-0.0107335 7.37185 -0.00273146 7.21785 0.0376063 7.07092C0.077944 6.92398 0.14965 6.78763 0.247743 6.67133C0.345836 6.55503 0.467965 6.46157 0.605644 6.39745C0.743324 6.33332 0.893253 6.30007 1.04502 6.3H5.22701V4.2ZM7.31801 6.3H12.5455C12.8228 6.3 13.0887 6.41062 13.2848 6.60754C13.4808 6.80445 13.591 7.07152 13.591 7.35C13.591 7.62848 13.4808 7.89555 13.2848 8.09246C13.0887 8.28937 12.8228 8.4 12.5455 8.4H2.27871L3.7309 17.1455C3.81227 17.6354 4.06395 18.0806 4.44123 18.4018C4.81851 18.723 5.29696 18.8996 5.79158 18.9H17.2084C17.7032 18.8998 18.1819 18.7234 18.5594 18.4022C18.9369 18.0809 19.1887 17.6356 19.2701 17.1455L20.7213 8.4H16.7275C16.4502 8.4 16.1843 8.28937 15.9882 8.09246C15.7921 7.89555 15.682 7.62848 15.682 7.35V4.2C15.682 3.64305 15.4617 3.1089 15.0696 2.71508C14.6774 2.32125 14.1456 2.1 13.591 2.1H9.409C8.85444 2.1 8.32258 2.32125 7.93045 2.71508C7.53831 3.1089 7.31801 3.64305 7.31801 4.2V6.3Z" fill="white"/>
</svg>
